<svg width="239" height="36" viewBox="0 0 239 36" fill="none" xmlns="http://www.w3.org/2000/svg">
<path d="M0.646484 1.61474V29H6.28463V9.78429H6.36134L13.0734 29H17.7143L24.4264 9.59252H24.5031V29H30.1413V1.61474H21.6649L15.6048 20.4469H15.5281L9.12288 1.61474H0.646484Z" fill="black"/>
<path d="M34.6375 15.269C34.7142 13.9905 35.0338 12.9294 35.5963 12.0856C36.1589 11.2418 36.8748 10.5642 37.7442 10.0528C38.6136 9.54138 39.5852 9.1834 40.6591 8.97884C41.7586 8.74872 42.8581 8.63365 43.9576 8.63365C44.9549 8.63365 45.9649 8.71036 46.9877 8.86378C48.0105 8.99163 48.9438 9.26011 49.7876 9.66923C50.6314 10.0783 51.3218 10.6537 51.8587 11.3952C52.3957 12.1111 52.6642 13.07 52.6642 14.2718V24.5892C52.6642 25.4842 52.7153 26.3407 52.8176 27.159C52.9199 27.9772 53.0989 28.5909 53.3546 29H47.8315C47.7292 28.6932 47.6397 28.3863 47.563 28.0795C47.5119 27.7471 47.4735 27.4147 47.4479 27.0823C46.5786 27.9772 45.5558 28.6037 44.3796 28.9617C43.2033 29.3196 42.0016 29.4986 40.7742 29.4986C39.8281 29.4986 38.946 29.3836 38.1277 29.1534C37.3095 28.9233 36.5935 28.5653 35.9799 28.0795C35.3662 27.5937 34.8804 26.98 34.5224 26.2385C34.19 25.4969 34.0238 24.6148 34.0238 23.592C34.0238 22.4669 34.2156 21.5464 34.5991 20.8305C35.0082 20.0889 35.5196 19.5008 36.1333 19.0661C36.7725 18.6314 37.4885 18.3118 38.2812 18.1073C39.0994 17.8771 39.9176 17.6981 40.7359 17.5703C41.5541 17.4425 42.3595 17.3402 43.1522 17.2635C43.9449 17.1868 44.648 17.0717 45.2617 16.9183C45.8754 16.7648 46.3612 16.5475 46.7192 16.2662C47.0772 15.9594 47.2434 15.5247 47.2178 14.9622C47.2178 14.3741 47.1155 13.9138 46.911 13.5814C46.732 13.2234 46.4763 12.9549 46.1439 12.776C45.837 12.5714 45.4663 12.4436 45.0316 12.3924C44.6225 12.3157 44.175 12.2773 43.6892 12.2773C42.6152 12.2773 41.7714 12.5075 41.1578 12.9677C40.5441 13.428 40.1861 14.1951 40.0838 15.269H34.6375ZM47.2178 19.2963C46.9877 19.5008 46.6936 19.667 46.3356 19.7949C46.0032 19.8972 45.6325 19.9866 45.2234 20.0634C44.8398 20.1401 44.4307 20.204 43.996 20.2551C43.5613 20.3063 43.1266 20.3702 42.6919 20.4469C42.2828 20.5236 41.8737 20.6259 41.4646 20.7537C41.081 20.8816 40.7359 21.0606 40.429 21.2907C40.1477 21.4953 39.9176 21.7637 39.7386 22.0962C39.5596 22.4286 39.4701 22.8505 39.4701 23.3619C39.4701 23.8477 39.5596 24.2568 39.7386 24.5892C39.9176 24.9216 40.1605 25.1901 40.4674 25.3947C40.7742 25.5737 41.1322 25.7015 41.5413 25.7782C41.9504 25.8549 42.3723 25.8933 42.807 25.8933C43.8809 25.8933 44.712 25.7143 45.3001 25.3563C45.8882 24.9983 46.3229 24.5764 46.6041 24.0906C46.8854 23.5792 47.0516 23.0678 47.1027 22.5564C47.1794 22.045 47.2178 21.6359 47.2178 21.3291V19.2963Z" fill="black"/>
<path d="M70.3924 16.1512H75.7237C75.647 14.8727 75.3402 13.7732 74.8032 12.8527C74.2663 11.9066 73.5631 11.1267 72.6937 10.513C71.8499 9.87379 70.8783 9.40074 69.7788 9.0939C68.7048 8.78707 67.5798 8.63365 66.4035 8.63365C64.7927 8.63365 63.3607 8.90213 62.1078 9.4391C60.8549 9.97607 59.7938 10.7304 58.9244 11.702C58.055 12.6481 57.3902 13.786 56.9299 15.1156C56.4952 16.4197 56.2779 17.8388 56.2779 19.373C56.2779 20.856 56.5208 22.224 57.0066 23.4769C57.4925 24.7043 58.1701 25.7654 59.0394 26.6604C59.9088 27.5553 60.9572 28.2585 62.1845 28.7699C63.4375 29.2557 64.8054 29.4986 66.2885 29.4986C68.9222 29.4986 71.0828 28.8082 72.7704 27.4275C74.458 26.0467 75.4808 24.0395 75.8388 21.4058H70.5842C70.4052 22.6331 69.9578 23.6176 69.2418 24.3591C68.5514 25.075 67.5542 25.433 66.2501 25.433C65.4063 25.433 64.6904 25.2412 64.1023 24.8577C63.5142 24.4741 63.0411 23.9883 62.6831 23.4002C62.3507 22.7865 62.1078 22.1089 61.9544 21.3674C61.801 20.6259 61.7243 19.8972 61.7243 19.1812C61.7243 18.4397 61.801 17.6981 61.9544 16.9566C62.1078 16.1895 62.3635 15.4991 62.7215 14.8855C63.105 14.2462 63.5909 13.7348 64.179 13.3513C64.7671 12.9422 65.4958 12.7376 66.3652 12.7376C68.692 12.7376 70.0345 13.8755 70.3924 16.1512Z" fill="black"/>
<path d="M78.9156 9.17062V29H84.3619V20.0634C84.3619 19.1684 84.4514 18.3374 84.6304 17.5703C84.8094 16.8032 85.1035 16.1384 85.5126 15.5759C85.9473 14.9877 86.5098 14.5275 87.2002 14.1951C87.8906 13.8627 88.7344 13.6965 89.7316 13.6965C90.064 13.6965 90.4092 13.722 90.7672 13.7732C91.1252 13.7988 91.432 13.8371 91.6877 13.8882V8.82542C91.253 8.69758 90.8567 8.63365 90.4987 8.63365C89.8083 8.63365 89.1435 8.73593 88.5043 8.94049C87.865 9.14505 87.2641 9.4391 86.7016 9.82265C86.139 10.1806 85.6404 10.6281 85.2057 11.1651C84.7711 11.6765 84.4259 12.239 84.1702 12.8527H84.0935V9.17062H78.9156Z" fill="black"/>
<path d="M97.9815 19.1045C97.9815 18.3118 98.0582 17.5319 98.2116 16.7649C98.365 15.9978 98.6207 15.3202 98.9787 14.732C99.3622 14.1439 99.8608 13.6709 100.475 13.3129C101.088 12.9294 101.855 12.7376 102.776 12.7376C103.696 12.7376 104.463 12.9294 105.077 13.3129C105.716 13.6709 106.215 14.1439 106.573 14.732C106.956 15.3202 107.225 15.9978 107.378 16.7649C107.532 17.5319 107.608 18.3118 107.608 19.1045C107.608 19.8972 107.532 20.677 107.378 21.4441C107.225 22.1857 106.956 22.8633 106.573 23.4769C106.215 24.065 105.716 24.5381 105.077 24.8961C104.463 25.254 103.696 25.433 102.776 25.433C101.855 25.433 101.088 25.254 100.475 24.8961C99.8608 24.5381 99.3622 24.065 98.9787 23.4769C98.6207 22.8633 98.365 22.1857 98.2116 21.4441C98.0582 20.677 97.9815 19.8972 97.9815 19.1045ZM92.5351 19.1045C92.5351 20.6898 92.778 22.1217 93.2638 23.4002C93.7497 24.6787 94.44 25.7782 95.335 26.6987C96.2299 27.5937 97.3039 28.2841 98.5568 28.7699C99.8097 29.2557 101.216 29.4986 102.776 29.4986C104.336 29.4986 105.742 29.2557 106.995 28.7699C108.273 28.2841 109.36 27.5937 110.255 26.6987C111.15 25.7782 111.84 24.6787 112.326 23.4002C112.812 22.1217 113.055 20.6898 113.055 19.1045C113.055 17.5192 112.812 16.0872 112.326 14.8088C111.84 13.5047 111.15 12.4052 110.255 11.5103C109.36 10.5897 108.273 9.88657 106.995 9.40074C105.742 8.88935 104.336 8.63365 102.776 8.63365C101.216 8.63365 99.8097 8.88935 98.5568 9.40074C97.3039 9.88657 96.2299 10.5897 95.335 11.5103C94.44 12.4052 93.7497 13.5047 93.2638 14.8088C92.778 16.0872 92.5351 17.5192 92.5351 19.1045Z" fill="black"/>
<path d="M131.95 19.9099H126.12C126.095 21.5975 126.402 23.055 127.041 24.2824C127.68 25.5097 128.537 26.5197 129.611 27.3124C130.71 28.1051 131.963 28.6804 133.369 29.0384C134.801 29.4219 136.272 29.6137 137.78 29.6137C139.647 29.6137 141.283 29.3963 142.69 28.9617C144.121 28.527 145.311 27.9261 146.257 27.159C147.228 26.3663 147.957 25.433 148.443 24.3591C148.929 23.2852 149.172 22.1217 149.172 20.8688C149.172 19.3346 148.839 18.0817 148.174 17.11C147.535 16.1128 146.768 15.3202 145.873 14.732C144.978 14.1439 144.07 13.722 143.15 13.4663C142.255 13.1851 141.552 12.9933 141.04 12.891C139.327 12.4563 137.934 12.0984 136.86 11.8171C135.811 11.5358 134.98 11.2546 134.367 10.9733C133.779 10.692 133.382 10.3852 133.178 10.0528C132.973 9.72037 132.871 9.28568 132.871 8.74871C132.871 8.16061 132.999 7.67478 133.254 7.29123C133.51 6.90769 133.83 6.58806 134.213 6.33237C134.622 6.07667 135.07 5.89768 135.556 5.7954C136.041 5.69312 136.527 5.64198 137.013 5.64198C137.755 5.64198 138.432 5.70591 139.046 5.83376C139.685 5.9616 140.248 6.17895 140.734 6.48579C141.219 6.79262 141.603 7.21452 141.884 7.75149C142.191 8.28846 142.37 8.96606 142.421 9.78429H148.251C148.251 8.19896 147.944 6.85655 147.331 5.75705C146.742 4.63197 145.937 3.71146 144.914 2.99551C143.891 2.27955 142.715 1.76816 141.386 1.46132C140.081 1.12891 138.713 0.962708 137.282 0.962708C136.054 0.962708 134.827 1.12891 133.6 1.46132C132.372 1.79372 131.273 2.30512 130.301 2.99551C129.329 3.68589 128.537 4.55526 127.923 5.60363C127.335 6.62642 127.041 7.84098 127.041 9.24732C127.041 10.5002 127.271 11.5742 127.731 12.4691C128.217 13.3385 128.844 14.0672 129.611 14.6553C130.378 15.2434 131.247 15.7293 132.219 16.1128C133.19 16.4708 134.188 16.7776 135.21 17.0333C136.208 17.3146 137.192 17.5703 138.164 17.8004C139.135 18.0306 140.005 18.299 140.772 18.6059C141.539 18.9127 142.153 19.2963 142.613 19.7565C143.099 20.2168 143.342 20.8177 143.342 21.5592C143.342 22.2496 143.163 22.8249 142.805 23.2852C142.447 23.7198 141.999 24.065 141.462 24.3207C140.925 24.5764 140.35 24.7554 139.736 24.8577C139.123 24.9344 138.547 24.9728 138.01 24.9728C137.218 24.9728 136.451 24.8833 135.709 24.7043C134.968 24.4997 134.315 24.2057 133.753 23.8221C133.216 23.413 132.781 22.8888 132.449 22.2496C132.116 21.6103 131.95 20.8305 131.95 19.9099Z" fill="black"/>
<path d="M162.19 25.433C161.32 25.433 160.579 25.254 159.965 24.8961C159.351 24.5381 158.853 24.0778 158.469 23.5153C158.111 22.9272 157.843 22.2496 157.664 21.4825C157.51 20.7154 157.434 19.9355 157.434 19.1428C157.434 18.3246 157.51 17.5319 157.664 16.7649C157.817 15.9978 158.073 15.3202 158.431 14.732C158.814 14.1439 159.3 13.6709 159.888 13.3129C160.502 12.9294 161.256 12.7376 162.151 12.7376C163.021 12.7376 163.749 12.9294 164.338 13.3129C164.951 13.6709 165.45 14.1567 165.833 14.7704C166.217 15.3585 166.485 16.0361 166.639 16.8032C166.818 17.5703 166.907 18.3502 166.907 19.1428C166.907 19.9355 166.831 20.7154 166.677 21.4825C166.524 22.2496 166.255 22.9272 165.872 23.5153C165.514 24.0778 165.028 24.5381 164.414 24.8961C163.826 25.254 163.085 25.433 162.19 25.433ZM152.179 9.17062V35.9422H157.625V26.5453H157.702C158.367 27.517 159.211 28.2585 160.234 28.7699C161.282 29.2557 162.42 29.4986 163.647 29.4986C165.105 29.4986 166.37 29.2173 167.444 28.6548C168.544 28.0923 169.451 27.338 170.167 26.3919C170.909 25.4458 171.459 24.3591 171.817 23.1317C172.175 21.9044 172.354 20.6259 172.354 19.2963C172.354 17.8899 172.175 16.5475 171.817 15.269C171.459 13.965 170.909 12.8271 170.167 11.8554C169.426 10.8838 168.493 10.1039 167.368 9.51581C166.242 8.9277 164.9 8.63365 163.34 8.63365C162.113 8.63365 160.988 8.87656 159.965 9.36239C158.942 9.84821 158.098 10.6281 157.434 11.702H157.357V9.17062H152.179Z" fill="black"/>
<path d="M175.396 15.269C175.473 13.9905 175.793 12.9294 176.355 12.0856C176.918 11.2418 177.634 10.5642 178.503 10.0528C179.372 9.54138 180.344 9.1834 181.418 8.97884C182.517 8.74872 183.617 8.63365 184.716 8.63365C185.714 8.63365 186.724 8.71036 187.746 8.86378C188.769 8.99163 189.703 9.26011 190.546 9.66923C191.39 10.0783 192.081 10.6537 192.618 11.3952C193.155 12.1111 193.423 13.07 193.423 14.2718V24.5892C193.423 25.4842 193.474 26.3407 193.576 27.159C193.679 27.9772 193.858 28.5909 194.113 29H188.59C188.488 28.6932 188.399 28.3863 188.322 28.0795C188.271 27.7471 188.232 27.4147 188.207 27.0823C187.337 27.9772 186.315 28.6037 185.138 28.9617C183.962 29.3196 182.76 29.4986 181.533 29.4986C180.587 29.4986 179.705 29.3836 178.887 29.1534C178.068 28.9233 177.352 28.5653 176.739 28.0795C176.125 27.5937 175.639 26.98 175.281 26.2385C174.949 25.4969 174.783 24.6148 174.783 23.592C174.783 22.4669 174.974 21.5464 175.358 20.8305C175.767 20.0889 176.278 19.5008 176.892 19.0661C177.531 18.6314 178.247 18.3118 179.04 18.1073C179.858 17.8771 180.676 17.6981 181.495 17.5703C182.313 17.4425 183.118 17.3402 183.911 17.2635C184.704 17.1868 185.407 17.0717 186.021 16.9183C186.634 16.7648 187.12 16.5475 187.478 16.2662C187.836 15.9594 188.002 15.5247 187.977 14.9622C187.977 14.3741 187.874 13.9138 187.67 13.5814C187.491 13.2234 187.235 12.9549 186.903 12.776C186.596 12.5714 186.225 12.4436 185.79 12.3924C185.381 12.3157 184.934 12.2773 184.448 12.2773C183.374 12.2773 182.53 12.5075 181.917 12.9677C181.303 13.428 180.945 14.1951 180.843 15.269H175.396ZM187.977 19.2963C187.746 19.5008 187.452 19.667 187.094 19.7949C186.762 19.8972 186.391 19.9866 185.982 20.0634C185.599 20.1401 185.19 20.204 184.755 20.2551C184.32 20.3063 183.885 20.3702 183.451 20.4469C183.042 20.5236 182.633 20.6259 182.223 20.7537C181.84 20.8816 181.495 21.0606 181.188 21.2907C180.907 21.4953 180.676 21.7637 180.497 22.0962C180.318 22.4286 180.229 22.8505 180.229 23.3619C180.229 23.8477 180.318 24.2568 180.497 24.5892C180.676 24.9216 180.919 25.1901 181.226 25.3947C181.533 25.5737 181.891 25.7015 182.3 25.7782C182.709 25.8549 183.131 25.8933 183.566 25.8933C184.64 25.8933 185.471 25.7143 186.059 25.3563C186.647 24.9983 187.082 24.5764 187.363 24.0906C187.644 23.5792 187.81 23.0678 187.862 22.5564C187.938 22.045 187.977 21.6359 187.977 21.3291V19.2963Z" fill="black"/>
<path d="M211.151 16.1512H216.483C216.406 14.8727 216.099 13.7732 215.562 12.8527C215.025 11.9066 214.322 11.1267 213.453 10.513C212.609 9.87379 211.637 9.40074 210.538 9.0939C209.464 8.78707 208.339 8.63365 207.162 8.63365C205.551 8.63365 204.12 8.90213 202.867 9.4391C201.614 9.97607 200.553 10.7304 199.683 11.702C198.814 12.6481 198.149 13.786 197.689 15.1156C197.254 16.4197 197.037 17.8388 197.037 19.373C197.037 20.856 197.28 22.224 197.765 23.4769C198.251 24.7043 198.929 25.7654 199.798 26.6604C200.668 27.5553 201.716 28.2585 202.943 28.7699C204.196 29.2557 205.564 29.4986 207.047 29.4986C209.681 29.4986 211.842 28.8082 213.529 27.4275C215.217 26.0467 216.24 24.0395 216.598 21.4058H211.343C211.164 22.6331 210.717 23.6176 210.001 24.3591C209.31 25.075 208.313 25.433 207.009 25.433C206.165 25.433 205.449 25.2412 204.861 24.8577C204.273 24.4741 203.8 23.9883 203.442 23.4002C203.11 22.7865 202.867 22.1089 202.713 21.3674C202.56 20.6259 202.483 19.8972 202.483 19.1812C202.483 18.4397 202.56 17.6981 202.713 16.9566C202.867 16.1895 203.122 15.4991 203.48 14.8855C203.864 14.2462 204.35 13.7348 204.938 13.3513C205.526 12.9422 206.255 12.7376 207.124 12.7376C209.451 12.7376 210.793 13.8755 211.151 16.1512Z" fill="black"/>
<path d="M233.022 16.9566H224.162C224.187 16.5731 224.264 16.1384 224.392 15.6526C224.545 15.1667 224.788 14.7065 225.121 14.2718C225.479 13.8371 225.939 13.4791 226.502 13.1979C227.09 12.891 227.818 12.7376 228.688 12.7376C230.017 12.7376 231.002 13.0956 231.641 13.8115C232.306 14.5275 232.766 15.5759 233.022 16.9566ZM224.162 20.4085H238.468C238.57 18.8744 238.443 17.4041 238.085 15.9978C237.727 14.5914 237.139 13.3385 236.32 12.239C235.528 11.1395 234.505 10.2701 233.252 9.63087C231.999 8.96606 230.529 8.63365 228.841 8.63365C227.333 8.63365 225.952 8.90213 224.699 9.4391C223.472 9.97607 222.41 10.7176 221.515 11.6637C220.62 12.5842 219.93 13.6837 219.444 14.9622C218.958 16.2407 218.716 17.6214 218.716 19.1045C218.716 20.6387 218.946 22.045 219.406 23.3235C219.892 24.602 220.569 25.7015 221.439 26.622C222.308 27.5425 223.369 28.2585 224.622 28.7699C225.875 29.2557 227.281 29.4986 228.841 29.4986C231.091 29.4986 233.009 28.9872 234.594 27.9644C236.18 26.9416 237.356 25.2412 238.123 22.8633H233.329C233.15 23.4769 232.664 24.065 231.871 24.6276C231.079 25.1645 230.132 25.433 229.033 25.433C227.499 25.433 226.323 25.0367 225.504 24.244C224.686 23.4514 224.239 22.1729 224.162 20.4085Z" fill="black"/>
</svg>
